<svg width="64" height="54" fill="none" xmlns="http://www.w3.org/2000/svg"><path d="M51.451 54c-4.322 0-7.739-1.326-10.248-3.977-2.37-2.79-3.556-6.488-3.556-11.093 0-8.65 1.952-16.116 5.856-22.395C47.407 10.116 53.263 4.605 61.072 0l2.51 3.558a56.891 56.891 0 0 0-8.785 7.535 32.965 32.965 0 0 0-6.065 9c-1.394 3.349-2.091 7.116-2.091 11.302l5.437-1.883c3.486 0 6.345 1.186 8.576 3.558C62.884 35.302 64 38.093 64 41.442c0 3.628-1.185 6.628-3.556 9C58.074 52.814 55.076 54 51.451 54zm-37.856 0c-4.323 0-7.67-1.326-10.04-3.977C1.186 47.233 0 43.535 0 38.93c0-8.65 1.882-16.116 5.647-22.395C9.551 10.116 15.407 4.605 23.216 0l2.51 3.558a62.6 62.6 0 0 0-8.576 7.535 32.963 32.963 0 0 0-6.065 9c-1.394 3.349-2.092 7.116-2.092 11.302l5.438-1.883c3.347 0 6.135 1.186 8.366 3.558 2.231 2.232 3.347 5.023 3.347 8.372 0 3.628-1.185 6.628-3.556 9C20.358 52.814 17.36 54 13.595 54z" fill="#3C1F53"/></svg>