<svg width="114" height="50" viewBox="0 0 114 50" fill="none" xmlns="http://www.w3.org/2000/svg">
<g clip-path="url(#clip0_1_16)">
<path d="M17.8804 6.52433H5.59377C2.78314 6.52433 0.198455 6.47919 0.0649414 4.73267C0.109446 7.72225 1.46854 12.0417 8.63377 12.1354H19.7839C23.5462 12.1354 25.1792 14.1111 25.2237 15.5834C25.2237 10.8021 23.8201 6.52433 17.8804 6.52433ZM25.2237 32.7327V20.1945C25.2237 14.1702 19.5579 14.6528 17.1992 14.6528C18.6507 14.6528 18.7842 16.8611 18.7842 19.4792V30.5695C18.7842 36.316 24.45 38.7084 27.3976 38.7084C25.2203 38.6181 25.2203 34.6181 25.2203 32.7327H25.2237ZM8.58584 32.7327V20.3646C8.58584 14.3403 2.92008 12.9618 0.561338 12.9618C2.01287 12.9618 2.14638 15.1702 2.14638 17.7882V30.5695C2.14638 36.316 7.81215 38.7084 10.7597 38.7084C8.58242 38.6181 8.58242 34.6181 8.58242 32.7327H8.58584Z" fill="#3C1F53"/>
<path d="M9.4418 0.951389H2.93045C1.44126 0.951389 0.0718919 0.927083 0 0C0.023964 1.58333 0.746306 3.87153 4.53946 3.92014H10.4517C12.4441 3.92014 13.3103 4.96875 13.3342 5.74653C13.3342 3.21528 12.5879 0.947917 9.4418 0.947917V0.951389Z" fill="#508BFF"/>
<path d="M48.0032 26.4236C48.0032 19.9201 45.9149 14.3819 41.8308 14.3819C50.7591 14.3819 55.4594 18.6701 55.4594 26.4236C55.4594 34.177 48.3353 36.8749 44.2032 36.8749H40.4512C44.5353 36.8749 48.0032 33.2152 48.0032 26.4236ZM39.2187 12.1979V42.3229C39.2187 44.2986 39.2187 48.4895 41.4987 48.5833C38.4108 48.5833 32.4746 46.0798 32.4746 40.059V9.49995C32.4746 6.75342 32.3308 4.44092 30.8108 4.44092C33.2791 4.44092 39.2187 5.88536 39.2187 12.1979Z" fill="#3C1F53"/>
<path d="M51.0468 50.0001C48.3765 50.0001 46.2163 47.8681 46.2163 45.1598C46.2163 42.4515 48.3765 40.2605 51.0468 40.2605C53.5459 40.2605 55.819 42.4515 55.819 45.1598C55.819 47.8681 53.6588 50.0001 51.0468 50.0001Z" fill="#508BFF"/>
<path d="M62.2447 22.1736V17.0868C62.2447 16.6493 62.1831 16.3021 62.0599 16.0417C61.9469 15.7708 61.673 15.6354 61.2417 15.6354H61.0979V15.3438H67.6914V22.1771H66.4008V15.9271H63.5354V22.1771H62.2447V22.1736Z" fill="#3C1F53"/>
<path d="M69.9747 24.9339V17.0832C69.9747 16.6457 69.9131 16.2985 69.7898 16.0381C69.6734 15.7673 69.403 15.6318 68.9716 15.6318H68.6841V15.3402H69.9747C70.3376 15.3402 70.6115 15.3923 70.7929 15.4999C70.9846 15.6075 71.1181 15.7707 71.1935 15.9929C71.3852 15.7985 71.6419 15.6214 71.9671 15.4548C72.2924 15.2811 72.7032 15.1943 73.1996 15.1943C73.7713 15.1943 74.2506 15.3541 74.634 15.6735C75.0174 15.9929 75.3016 16.4235 75.4933 16.9686C75.685 17.5034 75.7808 18.0971 75.7808 18.7568C75.7808 19.4166 75.6816 20.0034 75.4796 20.545C75.2879 21.0867 74.9935 21.5173 74.5895 21.8402C74.1889 22.1596 73.6754 22.3193 73.0558 22.3193C72.6552 22.3193 72.3095 22.2707 72.0253 22.1735C71.7378 22.0867 71.4844 21.9895 71.2653 21.8818V24.9339H69.9747ZM72.6279 21.736C73.0592 21.736 73.4016 21.6041 73.6583 21.3436C73.9151 21.0832 74.1171 20.7152 74.23 20.2673C74.3533 19.8124 74.4149 19.3089 74.4149 18.7568C74.4149 18.2048 74.3567 17.6909 74.2437 17.2464C74.1273 16.802 73.9459 16.4478 73.6994 16.1839C73.4598 15.9131 73.1516 15.7777 72.7682 15.7777C72.3848 15.7777 72.0596 15.8714 71.8234 16.0554C71.5837 16.2291 71.3989 16.427 71.2653 16.6527V21.3054C71.4844 21.4131 71.7104 21.5138 71.9398 21.611C72.1794 21.6978 72.4088 21.7429 72.6279 21.7429V21.736Z" fill="#3C1F53"/>
<path d="M80.2348 22.3193C79.5672 22.3193 78.9989 22.1596 78.5299 21.8402C78.0609 21.5207 77.7048 21.0902 77.4549 20.545C77.205 20.0034 77.0818 19.4061 77.0818 18.7568C77.0818 18.1075 77.205 17.5034 77.4549 16.9686C77.7048 16.427 78.0609 15.9964 78.5299 15.6735C78.9989 15.3541 79.5672 15.1943 80.2348 15.1943C80.9023 15.1943 81.4706 15.3541 81.9396 15.6735C82.4086 15.9929 82.7647 16.4235 83.0146 16.9686C83.2645 17.5034 83.3877 18.0971 83.3877 18.7568C83.3877 19.4166 83.2645 20.0034 83.0146 20.545C82.7647 21.0867 82.4086 21.5173 81.9396 21.8402C81.4706 22.1596 80.9023 22.3193 80.2348 22.3193ZM80.2348 21.7395C80.5976 21.7395 80.9126 21.6075 81.1796 21.3471C81.4467 21.0763 81.6521 20.7186 81.7958 20.2707C81.9499 19.8159 82.0252 19.3124 82.0252 18.7603C82.0252 18.2082 81.9499 17.6943 81.7958 17.2499C81.6521 16.8054 81.4467 16.4513 81.1796 16.1874C80.9126 15.9166 80.5976 15.7811 80.2348 15.7811C79.8719 15.7811 79.5672 15.9166 79.2899 16.1874C79.0229 16.4478 78.8106 16.802 78.66 17.2499C78.5162 17.6943 78.4443 18.2013 78.4443 18.7603C78.4443 19.3193 78.5162 19.8159 78.66 20.2707C78.814 20.7152 79.0229 21.0763 79.2899 21.3471C79.5672 21.6075 79.8821 21.7395 80.2348 21.7395Z" fill="#3C1F53"/>
<path d="M87.8383 22.3193C87.1296 22.3193 86.5442 22.1596 86.0752 21.8402C85.6062 21.5207 85.257 21.0902 85.0276 20.545C84.7983 20.0034 84.6853 19.4061 84.6853 18.7568C84.6853 18.1075 84.8017 17.5034 85.0276 16.9686C85.257 16.427 85.6062 15.9964 86.0752 15.6735C86.5442 15.3541 87.1296 15.1943 87.8383 15.1943C88.3449 15.1943 88.7694 15.2325 89.1152 15.3089C89.4678 15.3853 89.7349 15.5173 89.9163 15.7013C90.0977 15.8853 90.2039 16.1145 90.2313 16.3853C90.2586 16.6457 90.2758 17.0485 90.2758 17.5902H89.9882C89.9505 16.9686 89.7554 16.5138 89.3994 16.2221C89.057 15.92 88.6291 15.7707 88.1224 15.7707C87.6431 15.7707 87.2529 15.9061 86.9482 16.177C86.6435 16.4374 86.4141 16.7916 86.2601 17.2395C86.1163 17.6839 86.0444 18.1909 86.0444 18.7499C86.0444 19.3089 86.1163 19.8054 86.2601 20.2603C86.4141 20.7048 86.6435 21.0659 86.9482 21.3367C87.2529 21.5971 87.6466 21.7291 88.1224 21.7291C88.6291 21.7291 89.0399 21.6284 89.3549 21.4235C89.6698 21.2186 89.954 20.9339 90.2004 20.5659L90.488 20.7846C90.2792 21.1527 90.0395 21.4478 89.7725 21.67C89.5055 21.8923 89.2076 22.0589 88.8824 22.1631C88.5675 22.2603 88.2183 22.3089 87.8349 22.3089V22.3193H87.8383Z" fill="#3C1F53"/>
<path d="M93.8907 22.1736V15.9236H93.1752C92.7439 15.9236 92.3878 16.0486 92.1003 16.3021C91.8127 16.5451 91.6689 16.9028 91.6689 17.3785H91.3813V16.5069C91.3813 16.2153 91.4532 15.9514 91.597 15.7083C91.7408 15.4653 92.0284 15.3438 92.4563 15.3438H97.5435V15.9236H95.1779V22.1736H93.8873H93.8907Z" fill="#3C1F53"/>
<path d="M98.9883 22.1735V17.0867C98.9883 16.6492 98.9266 16.302 98.8034 16.0416C98.687 15.7708 98.4166 15.6353 97.9852 15.6353H97.7695V15.3437H98.9883C99.3238 15.3437 99.5805 15.3888 99.762 15.4756C99.9537 15.5624 100.087 15.7326 100.163 15.986C100.238 16.2395 100.279 16.6076 100.279 17.0902V18.1076H101.354C101.861 18.1076 102.323 18.1701 102.744 18.2951C103.165 18.4096 103.504 18.6145 103.761 18.9062C104.017 19.1978 104.147 19.6076 104.147 20.1423C104.147 20.677 104.017 21.0763 103.761 21.3784C103.504 21.6701 103.165 21.8784 102.744 22.0034C102.323 22.118 101.861 22.177 101.354 22.177H98.9883V22.1735ZM101.21 21.6596C101.679 21.6596 102.056 21.5451 102.343 21.3124C102.638 21.0798 102.788 20.6874 102.788 20.1353C102.788 19.5833 102.641 19.1909 102.343 18.9583C102.056 18.7256 101.679 18.611 101.21 18.611C101.066 18.611 100.899 18.6249 100.707 18.6562C100.525 18.6839 100.382 18.7187 100.275 18.7569V21.5173C100.382 21.5555 100.525 21.5902 100.707 21.618C100.899 21.6458 101.066 21.6631 101.21 21.6631V21.6596ZM106.369 22.1666C106.034 22.1666 105.773 22.1214 105.582 22.0346C105.4 21.9478 105.27 21.7777 105.195 21.5242C105.12 21.2708 105.079 20.9027 105.079 20.4201V15.3333H106.369V20.4201C106.369 20.8576 106.427 21.2083 106.54 21.4826C106.664 21.743 106.941 21.8749 107.372 21.8749H107.588V22.1666H106.369Z" fill="#3C1F53"/>
<path d="M111.278 22.3193C110.611 22.3193 110.049 22.1596 109.601 21.8402C109.163 21.5207 108.827 21.0902 108.598 20.545C108.379 20.0034 108.269 19.4061 108.269 18.7568C108.269 18.1075 108.386 17.5034 108.612 16.9686C108.841 16.427 109.17 15.9964 109.601 15.6735C110.032 15.3541 110.542 15.1943 111.135 15.1943C111.785 15.1943 112.319 15.3193 112.74 15.5728C113.172 15.8159 113.487 16.1735 113.685 16.6492C113.894 17.1249 114 17.7048 114 18.3923L113.973 18.9721H109.628C109.628 19.7673 109.796 20.427 110.132 20.9478C110.474 21.4721 110.953 21.7325 111.566 21.7325C112.035 21.7325 112.422 21.6318 112.727 21.427C113.042 21.2221 113.322 20.9374 113.572 20.5693L113.86 20.7881C113.651 21.1561 113.411 21.4513 113.144 21.6735C112.887 21.8957 112.6 22.0624 112.285 22.1666C111.98 22.2638 111.645 22.3124 111.282 22.3124V22.3193H111.278ZM109.625 18.3957H112.634C112.634 17.552 112.511 16.9096 112.261 16.4617C112.011 16.0068 111.635 15.7777 111.128 15.7777C110.84 15.7777 110.584 15.8923 110.354 16.1249C110.135 16.3471 109.957 16.6596 109.824 17.0554C109.69 17.4443 109.622 17.8888 109.622 18.3923L109.625 18.3957Z" fill="#3C1F53"/>
<path d="M62.2686 35.7325V28.1943C62.2686 27.7742 62.2104 27.4409 62.0906 27.1909C61.981 26.9304 61.7174 26.7985 61.3066 26.7985H61.0327V26.5207H62.272C62.6212 26.5207 62.8814 26.5728 63.056 26.6735C63.2408 26.7742 63.3675 26.9339 63.4428 27.1492C63.6277 26.9617 63.8742 26.7916 64.1857 26.6318C64.4972 26.4652 64.8909 26.3818 65.3702 26.3818C65.9214 26.3818 66.3801 26.5346 66.7464 26.8436C67.1127 27.1492 67.39 27.5659 67.5715 28.0867C67.7563 28.5971 67.8453 29.17 67.8453 29.8054C67.8453 30.4409 67.7495 30.9999 67.5578 31.5242C67.3729 32.045 67.0888 32.4582 66.7053 32.7673C66.3185 33.0728 65.8289 33.2291 65.2333 33.2291C64.8464 33.2291 64.5178 33.1839 64.2405 33.0902C63.9666 33.0068 63.7235 32.9131 63.5113 32.8124V35.7429H62.272V35.7325H62.2686ZM64.8122 32.6631C65.2264 32.6631 65.5551 32.5381 65.805 32.2846C66.0549 32.0311 66.2466 31.6804 66.3561 31.2499C66.476 30.8124 66.5342 30.3298 66.5342 29.7985C66.5342 29.2673 66.4794 28.7742 66.3698 28.3471C66.2603 27.92 66.0857 27.5798 65.846 27.3298C65.6167 27.0693 65.3188 26.9374 64.9525 26.9374C64.5862 26.9374 64.2747 27.0242 64.0453 27.2013C63.816 27.3679 63.6379 27.5589 63.5078 27.7742V32.2429C63.7201 32.3436 63.9358 32.4443 64.1549 32.5346C64.3842 32.6179 64.6033 32.6596 64.8156 32.6596L64.8122 32.6631Z" fill="#3C1F53"/>
<path d="M71.9878 33.2188C71.3441 33.2188 70.8101 33.066 70.3787 32.757C69.9577 32.4514 69.6359 32.0348 69.4168 31.5139C69.2045 30.9931 69.1018 30.4202 69.1018 29.7952C69.1018 29.1702 69.2114 28.5903 69.4339 28.0764C69.653 27.5556 69.9714 27.1424 70.3822 26.8334C70.7964 26.5278 71.2859 26.3716 71.8542 26.3716C72.4773 26.3716 72.9908 26.4931 73.3948 26.7362C73.809 26.9688 74.1103 27.3126 74.302 27.7709C74.504 28.2258 74.6032 28.7848 74.6032 29.4445L74.5759 30.0035H70.4061C70.4061 30.7674 70.567 31.3994 70.8888 31.9028C71.2209 32.4063 71.6796 32.6563 72.265 32.6563C72.7135 32.6563 73.0867 32.5591 73.3811 32.3646C73.6823 32.1702 73.9528 31.8959 74.1924 31.5417L74.4663 31.7501C74.2643 32.1042 74.035 32.3889 73.7782 32.6007C73.5317 32.816 73.2544 32.9723 72.9532 33.0764C72.6587 33.1702 72.3369 33.2153 71.9912 33.2153H71.9878V33.2188ZM70.4061 29.4514H73.2955C73.2955 28.6424 73.1757 28.0244 72.9395 27.5938C72.6998 27.1563 72.3369 26.9376 71.8508 26.9376C71.5769 26.9376 71.327 27.0487 71.1079 27.2709C70.8957 27.4862 70.7279 27.7813 70.5978 28.1633C70.4678 28.5348 70.4061 28.9619 70.4061 29.448V29.4514Z" fill="#3C1F53"/>
<path d="M76.3834 33.0798V28.1944C76.3834 27.7742 76.3253 27.4409 76.2054 27.1909C76.0959 26.9305 75.8357 26.7985 75.4215 26.7985H75.2161V26.5208H76.3869C76.7087 26.5208 76.9552 26.5624 77.1298 26.6458C77.3146 26.7291 77.4413 26.8923 77.5166 27.1353C77.5885 27.3784 77.6262 27.7326 77.6262 28.1978V32.5242H79.7589V26.5208H80.9982V32.5242H83.131V26.5208H84.3703V33.0833H76.3834V33.0798Z" fill="#3C1F53"/>
<path d="M88.8686 33.2188C88.225 33.2188 87.691 33.066 87.2596 32.757C86.8385 32.4514 86.5167 32.0348 86.2976 31.5139C86.0854 30.9931 85.9827 30.4202 85.9827 29.7952C85.9827 29.1702 86.0922 28.5903 86.3147 28.0764C86.5338 27.5556 86.8522 27.1424 87.263 26.8334C87.6773 26.5278 88.1668 26.3716 88.7351 26.3716C89.3582 26.3716 89.8717 26.4931 90.2756 26.7362C90.6899 26.9688 90.9911 27.3126 91.1828 27.7709C91.3848 28.2258 91.4841 28.7848 91.4841 29.4445L91.4567 30.0035H87.287C87.287 30.7674 87.4479 31.3994 87.7697 31.9028C88.1018 32.4063 88.5605 32.6563 89.1459 32.6563C89.5944 32.6563 89.9675 32.5591 90.2619 32.3646C90.5632 32.1702 90.8337 31.8959 91.0733 31.5417L91.3472 31.7501C91.1452 32.1042 90.9158 32.3889 90.6591 32.6007C90.4126 32.816 90.1353 32.9723 89.834 33.0764C89.5396 33.1702 89.2178 33.2153 88.872 33.2153H88.8686V33.2188ZM87.287 29.4514H90.1764C90.1764 28.6424 90.0565 28.0244 89.8169 27.5938C89.5773 27.1563 89.2144 26.9376 88.7282 26.9376C88.4544 26.9376 88.2045 27.0487 87.9854 27.2709C87.7731 27.4862 87.6054 27.7813 87.4753 28.1633C87.3452 28.5348 87.2836 28.9619 87.2836 29.448L87.287 29.4514Z" fill="#3C1F53"/>
<path d="M93.2643 33.0798V28.1944C93.2643 27.7742 93.2061 27.4409 93.0863 27.1909C92.9767 26.9305 92.7131 26.7985 92.3023 26.7985H92.0969V26.5208H93.2677C93.5895 26.5208 93.836 26.5624 94.0106 26.6458C94.1955 26.7291 94.3221 26.8923 94.3975 27.1353C94.4694 27.3784 94.507 27.7326 94.507 28.1978V29.5242H97.2595V26.5242H98.4987V31.4096C98.4987 31.8298 98.5535 32.1666 98.6631 32.427C98.7829 32.677 99.0499 32.8055 99.4607 32.8055H99.6661V33.0833H98.4953C98.1735 33.0833 97.9202 33.0416 97.7387 32.9583C97.5641 32.8749 97.4409 32.7117 97.369 32.4687C97.2971 32.2256 97.2595 31.8714 97.2595 31.4062V30.0798H94.507V33.0798H93.2643Z" fill="#3C1F53"/>
<path d="M100.871 33.0798V28.1944C100.871 27.7742 100.813 27.4409 100.693 27.1909C100.584 26.9305 100.32 26.7985 99.9093 26.7985H99.7039V26.5208H100.875C101.196 26.5208 101.443 26.5624 101.618 26.6458C101.802 26.7291 101.929 26.8923 102.004 27.1353C102.076 27.3784 102.114 27.7326 102.114 28.1978V31.8263L105.003 26.5208H106.243V33.0833H105.003V27.7777L102.114 33.0833H100.871V33.0798Z" fill="#3C1F53"/>
<path d="M108.218 33.2187C108.081 33.2187 107.944 33.2048 107.804 33.1771C107.673 33.1493 107.56 33.118 107.458 33.0798V32.8021C107.78 32.7639 108.04 32.6284 108.242 32.3958C108.444 32.1632 108.618 31.9271 108.766 31.684L109.591 30.2187C109.176 30.1458 108.81 29.9548 108.488 29.6458C108.166 29.3402 108.006 28.9236 108.006 28.4028C108.006 27.9201 108.129 27.5416 108.379 27.2708C108.635 26.993 108.971 26.7951 109.382 26.684C109.803 26.5729 110.262 26.5173 110.758 26.5173H113.993V26.7951H113.938C113.551 26.8055 113.305 26.9409 113.195 27.2014C113.086 27.4514 113.031 27.7847 113.031 28.1909V33.0764H111.792V30.2847H110.717L109.892 31.9583C109.68 32.3784 109.447 32.6944 109.19 32.9062C108.933 33.1111 108.608 33.2118 108.214 33.2118V33.2187H108.218ZM110.905 29.7986C111.042 29.7986 111.2 29.7847 111.374 29.7569C111.559 29.7291 111.699 29.6979 111.802 29.6597V27.1458C111.703 27.1076 111.559 27.0764 111.374 27.0486C111.2 27.0208 111.046 27.0069 110.905 27.0069C110.419 27.0069 110.032 27.118 109.748 27.3402C109.464 27.5555 109.32 27.9062 109.32 28.4028C109.32 28.8993 109.464 29.2534 109.748 29.4791C110.032 29.6944 110.419 29.7986 110.905 29.7986Z" fill="#3C1F53"/>
</g>
<defs>
<clipPath id="clip0_1_16">
<rect width="114" height="50" fill="white"/>
</clipPath>
</defs>
</svg>
